<?xml version="1.0" encoding="utf-8"?>
<!-- Generator: Adobe Illustrator 16.0.3, SVG Export Plug-In . SVG Version: 6.00 Build 0)  -->
<!DOCTYPE svg PUBLIC "-//W3C//DTD SVG 1.1//EN" "http://www.w3.org/Graphics/SVG/1.1/DTD/svg11.dtd">
<svg version="1.1" id="Layer_1" xmlns="http://www.w3.org/2000/svg" xmlns:xlink="http://www.w3.org/1999/xlink" x="0px" y="0px"
	 width="255.968px" height="255.968px" viewBox="0 0 255.968 255.968" enable-background="new 0 0 255.968 255.968"
	 xml:space="preserve">
<g>
	<g>
		<path fill-rule="evenodd" clip-rule="evenodd" fill="#FEFEFE" d="M1,166.979C1,112.986,1.042,58.993,0.903,5
			C0.894,1.575,1.576,0.898,5,0.904c82.656,0.123,165.313,0.123,247.969,0c3.424-0.006,4.101,0.672,4.096,4.095
			c-0.124,82.657-0.124,165.312,0,247.969c0.005,3.423-0.672,4.103-4.096,4.096c-67.992-0.13-135.983-0.097-203.975-0.097
			c-0.586-2.489,1.462-3.395,2.861-4.621c3.711-3.256,8.238-5.26,12.34-7.912c1.777-1.467,3.329-3.193,5.197-4.557
			c10.248-12.403,21.682-23.59,34.332-33.532c23.274-14.854,45.321-31.236,64.778-50.974c6.489-6.581,11.704-13.978,16.361-21.858
			c0.213-0.417,0.463-0.812,0.729-1.195c1.749-2.216,2.834-4.78,3.858-7.38c4.22-9.062,4.305-18.172,0.39-27.348
			c-0.39-0.914-0.633-1.88-0.48-2.901c0.674-1.988,2.583-2.399,4.146-3.259c0.472-0.214,0.965-0.363,1.47-0.472
			c6.081,0.128,11.359-2.146,16.314-5.43c5.123-3.396,7.36-7.975,5.966-14.119c-0.558-2.456-0.95-4.923,0.212-7.34
			c0.784-1.076,1.925-1.596,3.13-2.012c3.521-0.82,7.003-1.833,10.574-2.469c1.642-0.292,3.079-1.141,4.548-1.882
			c2.575-1.297,4.731-3.24,3.245-6.194c-1.718-3.416-4.413-1.576-6.746-0.296c-5.82,2.655-12.411,2.925-18.124,5.899
			c-2.568,1.146-3.528,3.268-3.684,5.922c-0.174,2.959-0.073,5.921-0.104,8.882c-0.073,6.888-0.823,7.987-7.264,10.632
			c-0.912,0.375-1.794,0.824-2.724,1.163c-1.005,0.342-2.044,0.497-3.099,0.554c-5.096-0.877-9.124,1.552-13.069,4.24
			c-4.371-1.168-7.64-4.393-11.852-6.083c-13.531-5.433-26.935-7.523-41.375-3.467c-8.6,2.416-17.521,3.871-26.265,5.947
			c-17.761,4.219-31.966,14.491-45.397,26.105c-16.393,14.176-30.9,30.292-46.371,45.418c-2.619,2.561-4.51,5.785-7.297,8.198
			C4.266,165.776,3.232,167.572,1,166.979z"/>
		<path fill-rule="evenodd" clip-rule="evenodd" fill="#FEFEFE" d="M16.998,256.968c-4.333,0-8.675-0.172-12.995,0.065
			c-2.518,0.139-3.084-0.564-3.069-3.065C1.053,234.305,1,214.641,1,194.976c3.609-7.334,10.102-12.304,15.293-18.308
			c14.153-16.367,29.874-31.26,45.306-46.399c8.31-8.152,17.537-15.305,27.191-21.841c3.169-2.144,6.697-3.689,10.325-4.959
			c10.858-3.8,21.96-6.661,33.313-8.494c2.086-0.337,4.22-1.105,6.39-0.32c1.069,1.147,0.465,2.528,0.494,3.809
			c0.041,1.793,0.594,3.29,2.262,4.13c1.351,0.68,2.62,0.36,3.625-0.724c1.269-1.366,1.406-2.907,0.614-4.607
			c-0.529-1.136-1.688-2.195-0.711-3.646c3.044-1.5,6.191-1.062,9.247-0.247c4.014,1.068,7.972,2.385,11.821,3.951
			c9.078,3.693,12.309,11.077,8.71,20.201c-3.208,8.129-7.986,15.345-13.923,21.719c-11.461,12.305-24.048,23.405-37.049,34.046
			c-2.192,1.795-4.475,3.455-7.129,4.519c-3.627,1.087-6.6,3.216-9.247,5.857c-8.61,6.678-17.394,13.109-25.669,20.244
			c-8.571,7.39-15.957,15.804-23.295,24.317c-0.628,0.733-1.403,1.271-2.255,1.705c-8.421,4.832-15.562,11.504-23.799,16.599
			c-2.039,0.922-3.984,1.992-5.609,3.569c-0.341,0.296-0.709,0.555-1.087,0.799C22.612,252.534,20.159,255.267,16.998,256.968z"/>
		<path fill-rule="evenodd" clip-rule="evenodd" fill="#5EFE5E" d="M1,186.977c0-4.666,0-9.332,0-13.998
			c2.342-4.498,6.074-7.871,9.509-11.437c19.122-19.845,37.623-40.299,59.57-57.261c13.779-10.649,29.33-16.769,46.048-20.493
			c6.323-1.407,12.596-3.062,19-4.086c7.213-1.153,14.496-0.374,21.74-0.747c6.76,1.789,13.323,3.891,19.352,7.718
			c10.725,6.807,15.683,17.798,13.12,30.291c-1.809,8.818-5.973,16.521-11.13,23.757c-9.159,12.85-21.025,23.059-32.718,33.429
			c-9.969,8.842-21.014,16.209-31.965,23.762c-12.718,8.77-24.7,18.555-35.221,29.997c-2.601,2.828-4.513,6.077-6.555,9.265
			c-0.521,0.063-0.95-0.101-1.273-0.521c-0.363-6.701-5.396-8.225-10.605-9.557c-0.307-1.804,1.149-1.867,2.244-2.294
			c0.965-0.226,1.972-0.356,2.672-1.192c6.212-7.404,13.485-13.768,20.26-20.619c0.324-0.343,0.685-0.643,1.065-0.919
			c10.422-7.058,19.727-15.659,30.557-22.161c1.134-0.682,1.841-1.897,2.716-2.897c13.116-8.579,24.845-18.871,35.925-29.856
			c8.051-7.982,15.005-17.055,19.28-27.612c5.411-13.363-2.698-22.712-16.434-25.896c-8.533-1.979-17.429-1.962-26.12,0.177
			c-11.08,1.285-21.729,4.304-32.215,7.989c-3.787,1.33-7.263,3.262-10.619,5.428c-0.401,0.255-0.823,0.474-1.25,0.681
			c-8.125,3.764-14.525,9.946-21.173,15.649c-20.99,18.007-39.237,38.752-57.962,59.01c-0.335,0.363-0.564,0.821-0.829,1.249
			c-0.248,0.42-0.527,0.813-0.821,1.2C5.524,186.982,3.938,189.139,1,186.977z"/>
		<path fill-rule="evenodd" clip-rule="evenodd" fill="#79FE79" d="M71.05,237.027c1.061-4.276,3.876-7.393,6.821-10.452
			c12.69-13.18,27.078-24.17,42.192-34.477c21.378-14.579,41.078-31.275,57.029-51.891c6.143-7.938,10.554-16.943,11.73-27.01
			c1.146-9.795-3.139-17.611-10.692-23.689c-6.213-5-13.692-7.241-21.147-9.509c-7.733-1.934-15.519-1.147-23.1,0.398
			c-11.662,2.378-23.332,4.731-34.708,8.481c-11.419,3.764-21.345,9.875-30.691,17.147c-22.53,17.532-41.284,38.977-61.218,59.2
			c-1.992,2.021-2.687,5.46-6.266,5.753c0-1.333,0-2.667,0-3.999c3.497-2.097,5.614-5.562,8.383-8.383
			c17.373-17.706,34.361-35.766,53.11-52.122c17.865-15.585,38.851-23.244,61.584-27.438c5.068-0.935,10.094-2.124,15.186-2.896
			c16.712-2.53,31.438,2.527,44.93,12.079c2.375,1.333,2.791,4.044,4.256,6.025c4.181,7.772,5.836,15.876,3.568,24.616
			c-0.415,1.596-0.864,3.138-1.518,4.633c-1.763,3.06-3.006,6.359-4.419,9.583l0.016-0.02c-6.202,9.229-12.468,18.433-20.739,25.981
			c-15.065,13.75-30,27.644-47.683,38.185c-4.783,2.851-9.397,6.173-13.597,9.942c-4.229,4.712-9.432,8.317-14.193,12.423
			c-7.425,6.401-13.107,14.395-19.897,21.367C68.812,239.232,69.633,238.049,71.05,237.027z"/>
		<path fill-rule="evenodd" clip-rule="evenodd" fill="#7AFE7A" d="M131.98,92.977c5.888-2.826,12.279-2.152,18.336-1.719
			c7.083,0.505,14.109,1.481,19.984,7.073c6.431,6.121,9.096,14.617,5.125,22.74c-7.014,14.351-17.329,26.02-29.275,36.456
			c-8.36,7.303-16.766,14.504-26.171,20.45c-11.703,7.826-22.941,16.284-33.987,25.005l0.002-0.002
			c-8.38,6.933-15.595,15.035-23.013,22.935c-1.085,0.101-2.28-0.105-2.984,1.063c-0.441,0.915-1.015,1.524-2.116,0.921
			c6.195-8.866,13.669-16.561,21.766-23.676c8.685-7.633,17.79-14.733,27.278-21.342c3.201-1.688,5.89-4.175,9.098-5.853
			c19.938-14.682,39.19-30.087,53.158-50.981c2.306-3.449,4.285-7.121,5.402-11.162c1.689-6.114-0.33-12.376-5.811-14.938
			c-7.625-3.564-15.436-7.127-24.307-5.848c-1.587,1.215-3.267,1.958-5.273,1.037c-9.892,1.295-19.546,3.712-29.242,5.988
			c-15.057,3.536-27.264,12.061-38.527,22.002c-24.08,21.256-45.942,44.715-67.151,68.794c-0.982,1.114-2.177,2.041-3.272,3.055
			c0-2,0-3.999,0-5.999c2.91-0.575,4.909-2.243,5.997-5.003l-0.001,0.001c9.063-10.147,18.516-19.935,27.775-29.902
			c11.896-12.807,24.428-24.959,37.885-36.107c4.829-4,9.764-7.962,15.333-10.982l-0.001,0.002
			c9.716-5.516,20.277-8.627,31.035-11.374C123.324,94.513,127.839,94.681,131.98,92.977z"/>
		<path fill-rule="evenodd" clip-rule="evenodd" fill="#75FE75" d="M1,170.979c4.942-5.116,9.997-10.131,14.806-15.369
			c15.818-17.231,32.472-33.501,50.34-48.696c17.961-15.273,38.932-21.908,61.332-25.933c7.469-1.341,14.853-3.211,22.53-3.005
			c2.525,0.067,4.941,0.339,6.974,2.023c-25.009-0.157-48.886,5.021-71.423,15.809c-11.17,5.347-20.215,13.862-29.585,21.767
			C40.7,130.462,27.89,145.848,13.677,159.817c-4.345,4.27-7.67,9.525-12.677,13.161C1,172.312,1,171.646,1,170.979z"/>
		<path fill-rule="evenodd" clip-rule="evenodd" fill="#5EFE5E" d="M71.05,237.027c-0.354,1.309-0.708,2.619-1.062,3.929
			c-1.563,1.396-3.125,2.792-4.688,4.188c-8.563,1.813-15.079,7.489-22.305,11.823c-5,0-9.999,0-14.998,0
			c-1.916-2.997,0.437-4.551,2.21-6.15c4.172-3.764,9.001-6.635,13.75-9.571c2.763-1.71,4.861-4.357,8.001-5.483
			c0.536,0.427,0.81,1.013,1.045,1.646c2.636,7.085,5.479,7.852,11.232,3.252c1.993-1.594,3.689-3.905,6.708-3.725L71.05,237.027z"
			/>
		<path fill-rule="evenodd" clip-rule="evenodd" fill="#81FE81" d="M31.893,245.742c7.172-5.198,14.349-10.387,21.508-15.601
			c0.797-0.581,1.463-1.363,2.594-1.166c0.457,2.933-2.202,3.888-3.58,5.658c-6.577,6.371-14.891,10.376-21.952,16.093
			c-2.198,1.781-4.521,3.39-5.466,6.241c-0.667,0-1.333,0-2,0c-2.572-3.837,1.074-5.101,2.94-7.102l-0.026,0.02
			C27.935,248.548,30.247,247.625,31.893,245.742z"/>
		<path fill-rule="evenodd" clip-rule="evenodd" fill="#70FE70" d="M24.997,256.968c-1.681-2.672,0.229-3.756,2.08-5.074
			c8.327-5.933,16.594-11.949,24.883-17.936c0.555,0.663,0.556,1.33,0.014,2.001c-3.585,4.794-9.06,7.083-13.756,10.409
			c-2.829,2.005-5.579,4.122-8.332,6.233c-1.413,1.084-2.087,2.553-1.89,4.366C26.997,256.968,25.997,256.968,24.997,256.968z"/>
		<path fill-rule="evenodd" clip-rule="evenodd" fill="#7AFE7A" d="M42.995,256.968c6.081-6.494,13.015-11.379,22.304-11.824
			c-5.536,3.801-12.199,6.05-16.305,11.824C46.994,256.968,44.994,256.968,42.995,256.968z"/>
		<path fill-rule="evenodd" clip-rule="evenodd" fill="#9BFE9B" d="M25.937,249.866c-1.221,2.268-3.752,3.993-2.94,7.102
			c-2,0-4,0-5.999,0C19.311,253.762,22.206,251.287,25.937,249.866z"/>
		<path fill-rule="evenodd" clip-rule="evenodd" fill="#75FE75" d="M6.997,183.974c-0.838,3.06-1.503,6.325-5.997,5.003
			c0-0.667,0-1.333,0-2C3.965,187.905,5.085,185.148,6.997,183.974z"/>
		<path fill-rule="evenodd" clip-rule="evenodd" fill="#FE5B5B" d="M220.95,62.915c-0.867,0.406-1.734,0.812-2.601,1.218
			c-2.479,2.041-1.039,4.525-0.688,6.824c0.623,4.094,0.747,7.96-3.197,10.652c-1.149,0.784-2.38,1.298-3.688,0.52
			c-1.231-0.732-1.767-1.893-1.61-3.363c0.557-5.245,0.55-10.525,1.178-15.773c0.418-3.5,1.866-5.904,5.167-7.14
			c5.326-2.357,11.33-2.57,16.57-5.215c3.214-1.044,5.227,0.658,6.142,3.331c1.026,2.999-1.693,3.761-3.701,4.833
			C230.264,61.071,225.175,60.564,220.95,62.915z"/>
		<path fill-rule="evenodd" clip-rule="evenodd" fill="#99FE99" d="M104.078,207.166c2.81-4.97,7.947-7.881,12.313-10.395
			c15.811-9.103,29.105-21.117,42.595-33.097c9.371-8.322,17.45-17.563,24.187-28.059c0.723-1.127,1.529-2.186,2.924-2.559
			c-3.128,7.231-7.745,13.509-13.076,19.179c-12.064,12.831-25.235,24.526-39.202,35.193
			C124.383,194.635,114.024,200.63,104.078,207.166z"/>
		<path fill-rule="evenodd" clip-rule="evenodd" fill="#FE7272" d="M215.994,56.025c-6.517,4.049-4.134,11.236-5.929,16.946
			c-0.285,0.907-0.148,1.987-0.041,2.969c0.219,1.984-1.046,5.3,1.731,5.42c2.807,0.121,4.854-2.611,5.151-5.651
			c0.222-2.27,0.333-4.611-0.492-6.881c-0.748-2.058-0.75-3.972,1.934-4.694c-0.675,2.132-0.411,4.266-0.052,6.414
			c1.473,8.806-0.636,13.163-8.563,17.638c-4.887,2.759-10.091,4.268-15.764,3.789c-0.347-2.303,1.415-2.619,2.958-3.056
			c1.092-0.309,2.258-0.321,3.351-0.638c1.37-0.395,3.206-0.469,3.396-2.255c0.186-1.744-1.699-1.617-2.764-2.193
			c-0.435-0.235-0.822-0.511-1.099-0.926c8.928-2.393,10.33-8.647,9.012-16.726c-0.703-4.302,0.256-8.378,5.065-10.246
			C214.613,55.445,215.317,55.414,215.994,56.025z"/>
		<path fill-rule="evenodd" clip-rule="evenodd" fill="#FE5A5A" d="M199.813,82.905c0.824,0.032,1.647,0.087,2.472,0.094
			c1.791,0.015,3.515,0.382,3.488,2.547c-0.021,1.696-1.07,2.709-2.819,3.558c-2.9,1.406-6.854-0.661-8.983,2.87l0.046,0.063
			c-3.744,1.442-5.252-0.82-5.844-3.859c-0.686-3.521,1.818-4.098,4.531-4.165c1.494-0.036,2.964-0.109,4.282-0.923
			C197.928,83.028,198.871,82.966,199.813,82.905z"/>
		<path fill-rule="evenodd" clip-rule="evenodd" fill="#FE8F8F" d="M220.95,62.915c3.249-3.787,8.506-2.031,12.316-4.462
			c1.619-1.032,4.519-1.163,4.197-3.486c-0.354-2.549-2.476-4.241-5.475-3.918c-0.296-0.198-0.396-0.396-0.3-0.598
			c0.097-0.201,0.194-0.303,0.293-0.303c2.75-2.713,5.659-2.895,8.23,0.017c2.023,2.292,0.536,6.331-3.021,8.307
			C232.165,61.265,226.529,62.032,220.95,62.915z"/>
		<path fill-rule="evenodd" clip-rule="evenodd" fill="#A0FA9C" d="M189.953,123.942c2.978-10.403,3.062-20.538-2.781-30.128
			c0.973-0.626,1.855-0.651,2.576,0.391c5.032,10.578,6.313,21.187,0.259,31.855C189.333,125.371,189.426,124.662,189.953,123.942z"
			/>
		<path fill-rule="evenodd" clip-rule="evenodd" fill="#F58C82" d="M189.748,94.205c-0.86-0.13-1.721-0.26-2.578-0.39
			c-1.568-1.56-2.454-3.483-2.979-5.597c2.982-4.909,7.584-5.777,12.794-5.129c-0.713,1.266-1.812,1.73-3.244,1.913
			c-1.725,0.22-4.577-1.107-4.6,2.084c-0.021,2.876,1.438,5.086,4.874,4.95C192.935,93.433,191.299,93.734,189.748,94.205z"/>
		<path fill-rule="evenodd" clip-rule="evenodd" fill="#FE9595" d="M231.982,50.148c-0.001,0.3,0.001,0.6,0.007,0.899
			c-4.908,3.02-10.605,3.505-15.996,4.978c-0.701-0.03-1.401-0.061-2.104-0.092C219.477,52.616,226.187,52.811,231.982,50.148z"/>
		<path fill-rule="evenodd" clip-rule="evenodd" fill="#99FE99" d="M189.953,123.942c0.018,0.706,0.036,1.411,0.054,2.117
			c-0.682,2.69-1.707,5.188-3.926,7.018C186.288,129.572,187.008,126.286,189.953,123.942z"/>
		<path fill-rule="evenodd" clip-rule="evenodd" fill="#3BFE3B" d="M51.974,235.959c-0.004-0.667-0.009-1.334-0.014-2.001
			c1.344-1.661,2.69-3.322,4.035-4.982c0.629-0.358,1.257-0.718,1.886-1.077c0.706-0.308,1.411-0.614,2.116-0.921
			c9.053,0.005,10.981,1.759,10.946,9.958c-2.083,1.61-4.389,3.006-6.189,4.886c-2.371,2.478-4.952,4.288-8.248,2.678
			C53.167,242.867,51.374,239.926,51.974,235.959z"/>
		<path fill-rule="evenodd" clip-rule="evenodd" fill="#5353FD" d="M139.192,95.137c1.701-0.643,3.378-1.413,5.276-1.038
			c0.933,0.917,2.042,1.714,2.768,2.775c1.424,2.078,0.886,4.173-0.694,5.896c-1.414,1.542-3.201,2.29-5.359,1.401
			c-2.208-0.909-3.476-2.481-3.503-4.901C137.663,97.724,138.398,96.409,139.192,95.137z"/>
		<path fill-rule="evenodd" clip-rule="evenodd" fill="#BEFEBE" d="M116.022,177.028c-2.762,2.371-5.122,5.367-9.097,5.853
			C109.364,180.007,112.227,177.793,116.022,177.028z"/>
		<path fill-rule="evenodd" clip-rule="evenodd" fill="#9BFE9B" d="M31.893,245.742c-1.056,2.733-3.229,3.857-5.982,4.144
			C27.274,247.594,29.576,246.656,31.893,245.742z"/>
		<path fill-rule="evenodd" clip-rule="evenodd" fill="#75FE75" d="M87.987,106.983c-6.269,5.646-13.468,10.094-19.751,15.772
			c-10.601,9.58-21.431,18.888-30.646,29.88c-1.266,1.512-2.678,2.92-4.142,4.243c-9.383,8.482-16.653,19.024-26.454,27.096
			c-0.028-1.483,0.955-2.389,1.867-3.37c15.886-17.102,31.532-34.451,48.581-50.409c7.938-7.43,16.639-14.056,25.123-20.885
			C84.041,108.122,86.164,107.738,87.987,106.983z"/>
		<path fill-rule="evenodd" clip-rule="evenodd" fill="#75FE75" d="M131.98,92.977c-4.09,2.988-9.188,2.257-13.739,3.659
			c-8.99,2.769-18.475,4.028-26.413,9.719c-0.946,0.678-2.546,0.442-3.843,0.631c6.808-6.033,15.466-8.16,23.833-10.291
			C118.385,95.022,124.9,92.17,131.98,92.977z"/>
		<path fill-rule="evenodd" clip-rule="evenodd" fill="#75FE75" d="M85.992,202.981c6.003-7.18,14.303-11.507,21.518-17.174
			c3.837-3.015,7.782-6.072,12.469-7.831c-3.567,5.037-9.443,7.001-14.13,10.551C99.325,193.468,93.563,199.476,85.992,202.981z"/>
		<path fill-rule="evenodd" clip-rule="evenodd" fill="#75FE75" d="M62.981,225.914c1.587-4.818,6.16-7.149,9.154-10.804
			c3.897-4.755,8.066-9.436,13.859-12.131c-0.743,3.021-3.625,4.075-5.53,6.032c-4.58,4.706-9.141,9.43-13.702,14.154
			C65.661,224.307,65.029,226.08,62.981,225.914z"/>
	</g>
</g>
</svg>
